<?xml version="1.0" encoding="UTF-8" standalone="no"?>
<svg
   xmlns:dc="http://purl.org/dc/elements/1.1/"
   xmlns:cc="http://creativecommons.org/ns#"
   xmlns:rdf="http://www.w3.org/1999/02/22-rdf-syntax-ns#"
   xmlns:svg="http://www.w3.org/2000/svg"
   xmlns="http://www.w3.org/2000/svg"
   xmlns:sodipodi="http://sodipodi.sourceforge.net/DTD/sodipodi-0.dtd"
   xmlns:inkscape="http://www.inkscape.org/namespaces/inkscape"
   width="210mm"
   height="270mm"
   viewBox="0 0 210 270"
   version="1.1"
   id="svg8"
   inkscape:version="1.0.2-2 (e86c870879, 2021-01-15)"
   sodipodi:docname="input.svg">
  <defs
     id="defs2">
    <marker
       style="overflow:visible"
       id="Arrow1Lstart"
       refX="0"
       refY="0"
       orient="auto"
       inkscape:stockid="Arrow1Lstart"
       inkscape:isstock="true">
      <path
         transform="matrix(0.8,0,0,0.8,10,0)"
         style="fill:#d9c0a3;fill-opacity:1;fill-rule:evenodd;stroke:#d9c0a3;stroke-width:1pt;stroke-opacity:1"
         d="M 0,0 5,-5 -12.5,0 5,5 Z"
         id="path1173" />
    </marker>
    <marker
       style="overflow:visible"
       id="DiamondL"
       refX="0"
       refY="0"
       orient="auto"
       inkscape:stockid="DiamondL"
       inkscape:isstock="true">
      <path
         transform="scale(0.8)"
         style="fill:#ffffff;fill-opacity:1;fill-rule:evenodd;stroke:#ffffff;stroke-width:1pt;stroke-opacity:1"
         d="M 0,-7.0710768 -7.0710894,0 0,7.0710589 7.0710462,0 Z"
         id="path961" />
    </marker>
    <marker
       style="overflow:visible"
       id="DiamondL-4"
       refX="0"
       refY="0"
       orient="auto"
       inkscape:stockid="DiamondL"
       inkscape:isstock="true">
      <path
         transform="scale(0.8)"
         style="fill:#ffffff;fill-opacity:1;fill-rule:evenodd;stroke:#ffffff;stroke-width:1pt;stroke-opacity:1"
         d="M 0,-7.0710768 -7.0710894,0 0,7.0710589 7.0710462,0 Z"
         id="path961-3" />
    </marker>
    <marker
       style="overflow:visible"
       id="Arrow1Lstart-3"
       refX="0"
       refY="0"
       orient="auto"
       inkscape:stockid="Arrow1Lstart"
       inkscape:isstock="true">
      <path
         transform="matrix(0.8,0,0,0.8,10,0)"
         style="fill:#d9c0a3;fill-opacity:1;fill-rule:evenodd;stroke:#d9c0a3;stroke-width:1pt;stroke-opacity:1"
         d="M 0,0 5,-5 -12.5,0 5,5 Z"
         id="path1173-5" />
    </marker>
    <marker
       style="overflow:visible"
       id="Arrow1Lstart-4"
       refX="0"
       refY="0"
       orient="auto"
       inkscape:stockid="Arrow1Lstart"
       inkscape:isstock="true">
      <path
         transform="matrix(0.8,0,0,0.8,10,0)"
         style="fill:#d9c0a3;fill-opacity:1;fill-rule:evenodd;stroke:#d9c0a3;stroke-width:1pt;stroke-opacity:1"
         d="M 0,0 5,-5 -12.5,0 5,5 Z"
         id="path1173-4" />
    </marker>
    <marker
       style="overflow:visible"
       id="Arrow1Lstart-4-9"
       refX="0"
       refY="0"
       orient="auto"
       inkscape:stockid="Arrow1Lstart"
       inkscape:isstock="true">
      <path
         transform="matrix(0.8,0,0,0.8,10,0)"
         style="fill:#d9c0a3;fill-opacity:1;fill-rule:evenodd;stroke:#d9c0a3;stroke-width:1pt;stroke-opacity:1"
         d="M 0,0 5,-5 -12.5,0 5,5 Z"
         id="path1173-4-2" />
    </marker>
  </defs>
  <sodipodi:namedview
     id="base"
     pagecolor="#ffffff"
     bordercolor="#666666"
     borderopacity="1.0"
     inkscape:pageopacity="0.0"
     inkscape:pageshadow="2"
     inkscape:zoom="3.959798"
     inkscape:cx="350.42346"
     inkscape:cy="204.29343"
     inkscape:document-units="mm"
     inkscape:current-layer="layer1-6"
     inkscape:document-rotation="0"
     showgrid="false"
     inkscape:window-width="2316"
     inkscape:window-height="1321"
     inkscape:window-x="2475"
     inkscape:window-y="-9"
     inkscape:window-maximized="1" />
  <metadata
     id="metadata5">
    <rdf:RDF>
      <cc:Work
         rdf:about="">
        <dc:format>image/svg+xml</dc:format>
        <dc:type
           rdf:resource="http://purl.org/dc/dcmitype/StillImage" />
        <dc:title></dc:title>
      </cc:Work>
    </rdf:RDF>
  </metadata>
  <g
     inkscape:label="Camada 1"
     inkscape:groupmode="layer"
     id="layer1">
    <g
       inkscape:label="Camada 1"
       id="layer1-6"
       transform="translate(-11.59382,69.563705)">
      <rect
         style="fill:#323840;fill-opacity:1;stroke:#63a6ff;stroke-width:0.366801"
         id="rect10"
         width="282.51971"
         height="401.69153"
         x="-22.979063"
         y="-120.58999" />
      <path
         id="path1063"
         style="fill:#a65e4e;stroke:#d9c0a3;stroke-width:0.276544"
         d="m 117.88168,-57.697763 c -0.83592,-0.01036 -1.68357,0.07541 -2.52917,0.26296 -4.02158,0.891964 -7.2764,4.096836 -8.23523,8.108981 -0.28704,1.20109 -0.36699,2.822711 -0.19786,4.01267 0.70719,4.975474 4.66177,8.823727 9.64508,9.385761 1.12099,0.126428 2.6044,0.02753 3.73656,-0.249179 3.87901,-0.948056 6.98249,-3.989848 7.98463,-7.826219 0.66732,-2.554585 0.42194,-5.137048 -0.7111,-7.484848 -0.18758,-0.388696 -0.46378,-0.897144 -0.61383,-1.129775 -2.05525,-3.186362 -5.45678,-5.035456 -9.07908,-5.080351 z m -0.0477,23.901771 c -4.22125,-1.07e-4 -4.3182,0.0094 -5.86559,0.578036 -4.56393,1.677057 -8.54459,6.841468 -10.67474,13.848947 -0.7735,2.544561 -1.25664,5.058442 -1.535302,7.987638 -0.123362,1.296768 -0.180543,3.9926485 -0.09378,4.4251682 0.08655,0.4314627 0.450542,1.015031 0.738352,1.1837941 0.18971,0.1112407 2.91734,0.1324104 17.37323,0.1355984 11.31673,0.00245 17.21926,-0.028846 17.35757,-0.092036 0.32119,-0.1467811 0.58663,-0.4867044 0.74626,-0.9553658 0.13586,-0.3988867 0.14426,-0.5027457 0.13497,-1.6783491 -0.0286,-3.6211148 -0.59763,-7.3891208 -1.63875,-10.8510478 -0.8508,-2.829071 -1.70398,-4.774373 -3.09611,-7.059518 -2.44335,-4.010675 -5.3035,-6.398831 -8.75355,-7.308854 -0.78208,-0.206293 -0.94975,-0.213917 -4.69257,-0.214011 z" />
      <text
         xml:space="preserve"
         style="font-style:normal;font-weight:normal;font-size:21.8932px;line-height:1.25;font-family:sans-serif;fill:#d9c0a3;fill-opacity:1;stroke:none;stroke-width:0.547277;stroke-miterlimit:4;stroke-dasharray:none"
         x="110.62998"
         y="-10.262534"
         id="text1071"><tspan
           sodipodi:role="line"
           id="tspan1069"
           x="110.62998"
           y="-10.262534"
           style="fill:#d9c0a3;fill-opacity:1;stroke-width:0.547277;stroke-miterlimit:4;stroke-dasharray:none">1</tspan></text>
      <path
         id="path1063-5"
         style="fill:#a65e4e;stroke:#d9c0a3;stroke-width:0.276544"
         d="m 53.157258,27.752115 c -0.83592,-0.01036 -1.68356,0.07541 -2.52917,0.26296 -4.02157,0.891964 -7.2764,4.096836 -8.23523,8.108981 -0.28704,1.20109 -0.36698,2.822711 -0.19785,4.01267 0.70718,4.975474 4.66176,8.823727 9.64507,9.385761 1.121,0.126428 2.6044,0.02753 3.73657,-0.249179 3.879,-0.948056 6.98248,-3.989848 7.98462,-7.826219 0.66732,-2.554585 0.42194,-5.137048 -0.7111,-7.484848 -0.18758,-0.388696 -0.46378,-0.897144 -0.61383,-1.129775 -2.05525,-3.186362 -5.45677,-5.035456 -9.07908,-5.080351 z m -0.0477,23.901771 c -4.22124,-1.07e-4 -4.3182,0.0094 -5.86558,0.578036 -4.56394,1.677057 -8.5446,6.841468 -10.67474,13.848947 -0.7735,2.544561 -1.25665,5.058443 -1.53531,7.987638 -0.12336,1.296768 -0.18054,3.992649 -0.0938,4.425169 0.0865,0.431463 0.45054,1.015031 0.73835,1.183794 0.18971,0.111241 2.91734,0.132411 17.37324,0.135599 11.31673,0.0024 17.21925,-0.02885 17.35757,-0.09204 0.32119,-0.146781 0.58662,-0.486705 0.74626,-0.955366 0.13585,-0.398887 0.14426,-0.502746 0.13496,-1.678349 -0.0286,-3.621115 -0.59762,-7.389122 -1.63874,-10.851049 -0.85081,-2.829071 -1.70398,-4.774373 -3.09612,-7.059518 -2.44334,-4.010675 -5.30349,-6.398831 -8.75354,-7.308854 -0.78208,-0.206293 -0.94975,-0.213917 -4.69257,-0.214011 z" />
      <text
         xml:space="preserve"
         style="font-style:normal;font-weight:normal;font-size:21.8932px;line-height:1.25;font-family:sans-serif;fill:#d9c0a3;fill-opacity:1;stroke:none;stroke-width:0.547;stroke-miterlimit:4;stroke-dasharray:none"
         x="45.905567"
         y="75.187347"
         id="text1071-7"><tspan
           sodipodi:role="line"
           id="tspan1069-4"
           x="45.905567"
           y="75.187347"
           style="fill:#d9c0a3;fill-opacity:1;stroke-width:0.547;stroke-miterlimit:4;stroke-dasharray:none">2</tspan></text>
      <path
         id="path1063-5-2"
         style="fill:#a65e4e;stroke:#d9c0a3;stroke-width:0.276544"
         d="m 179.62852,27.752119 c -0.83592,-0.01036 -1.68357,0.07541 -2.52918,0.26296 -4.0216,0.891964 -7.27644,4.096836 -8.23528,8.108981 -0.28704,1.20109 -0.36698,2.822711 -0.19785,4.01267 0.70718,4.975474 4.66179,8.823727 9.64512,9.385761 1.12101,0.126428 2.60442,0.02753 3.7366,-0.249179 3.87902,-0.948056 6.98251,-3.989848 7.98466,-7.826219 0.66733,-2.554585 0.42194,-5.137048 -0.7111,-7.484848 -0.18758,-0.388696 -0.46379,-0.897144 -0.61384,-1.129775 -2.05526,-3.186362 -5.4568,-5.035456 -9.07913,-5.080351 z m -0.0477,23.901771 c -4.22126,-1.07e-4 -4.31822,0.0094 -5.86561,0.578036 -4.56397,1.677057 -8.54465,6.841468 -10.6748,13.848947 -0.77351,2.544561 -1.25666,5.058443 -1.53532,7.987638 -0.12336,1.296768 -0.18054,3.992649 -0.0938,4.425169 0.0865,0.431463 0.45054,1.015031 0.73835,1.183794 0.18971,0.111241 2.91736,0.132411 17.37334,0.135599 11.3168,0.0024 17.21935,-0.02885 17.35767,-0.09204 0.32119,-0.146781 0.58662,-0.486705 0.74627,-0.955366 0.13585,-0.398887 0.14426,-0.502746 0.13496,-1.678349 -0.0286,-3.621115 -0.59763,-7.389122 -1.63875,-10.851049 -0.85082,-2.829071 -1.70399,-4.774373 -3.09614,-7.059518 -2.44336,-4.010675 -5.30352,-6.398831 -8.75359,-7.308854 -0.78209,-0.206293 -0.94976,-0.213917 -4.6926,-0.214011 z" />
      <text
         xml:space="preserve"
         style="font-style:normal;font-weight:normal;font-size:21.8932px;line-height:1.25;font-family:sans-serif;fill:#d9c0a3;fill-opacity:1;stroke:none;stroke-width:0.547277;stroke-miterlimit:4;stroke-dasharray:none"
         x="172.90532"
         y="75.187347"
         id="text1071-7-4"><tspan
           sodipodi:role="line"
           id="tspan1069-4-9"
           x="172.90532"
           y="75.187347"
           style="fill:#d9c0a3;fill-opacity:1;stroke-width:0.547277;stroke-miterlimit:4;stroke-dasharray:none">3</tspan></text>
      <path
         id="path1063-5-3"
         style="fill:#a65e4e;stroke:#d9c0a3;stroke-width:0.276544"
         d="m 51.954525,131.92365 c -0.83592,-0.0104 -1.68356,0.0754 -2.52917,0.26296 -4.02157,0.89197 -7.2764,4.09686 -8.23523,8.10903 -0.28704,1.20109 -0.36698,2.82272 -0.19785,4.01269 0.70718,4.9755 4.66176,8.82378 9.64507,9.38581 1.121,0.12643 2.6044,0.0275 3.73657,-0.24918 3.879,-0.94806 6.98248,-3.98987 7.98462,-7.82626 0.66732,-2.5546 0.42194,-5.13708 -0.7111,-7.48489 -0.18758,-0.3887 -0.46378,-0.89715 -0.61383,-1.12978 -2.05525,-3.18638 -5.45677,-5.03549 -9.07908,-5.08038 z m -0.0477,23.90191 c -4.22124,-1.1e-4 -4.3182,0.009 -5.86558,0.57803 -4.56394,1.67707 -8.5446,6.84151 -10.67474,13.84903 -0.7735,2.54458 -1.25665,5.05847 -1.53531,7.98768 -0.12336,1.29678 -0.18054,3.99268 -0.0938,4.42519 0.0865,0.43148 0.45054,1.01505 0.73835,1.18381 0.18971,0.11124 2.91734,0.13241 17.37324,0.1356 11.31673,0.002 17.21925,-0.0288 17.35757,-0.092 0.32119,-0.14678 0.58662,-0.48671 0.74626,-0.95538 0.13585,-0.39888 0.14426,-0.50274 0.13496,-1.67835 -0.0286,-3.62114 -0.59762,-7.38917 -1.63874,-10.85111 -0.85081,-2.82909 -1.70398,-4.7744 -3.09612,-7.05956 -2.44334,-4.0107 -5.30349,-6.39887 -8.75354,-7.3089 -0.78208,-0.20629 -0.94975,-0.21391 -4.69257,-0.21401 z" />
      <text
         xml:space="preserve"
         style="font-style:normal;font-weight:normal;font-size:21.8932px;line-height:1.25;font-family:sans-serif;fill:#d9c0a3;fill-opacity:1;stroke:none;stroke-width:0.547277;stroke-miterlimit:4;stroke-dasharray:none"
         x="44.702835"
         y="179.35791"
         id="text1071-7-7"><tspan
           sodipodi:role="line"
           id="tspan1069-4-4"
           x="44.702835"
           y="179.35791"
           style="fill:#d9c0a3;fill-opacity:1;stroke-width:0.547277;stroke-miterlimit:4;stroke-dasharray:none">4</tspan></text>
      <path
         id="path1063-5-2-5"
         style="fill:#a65e4e;stroke:#d9c0a3;stroke-width:0.276544"
         d="m 180.68684,131.99823 c -0.83592,-0.0104 -1.68357,0.0754 -2.52918,0.26296 -4.0216,0.89197 -7.27644,4.09686 -8.23528,8.10903 -0.28704,1.2011 -0.36698,2.82273 -0.19785,4.01269 0.70718,4.97551 4.66179,8.82378 9.64512,9.38582 1.12101,0.12643 2.60442,0.0275 3.7366,-0.24918 3.87902,-0.94806 6.98251,-3.98987 7.98466,-7.82626 0.66733,-2.5546 0.42194,-5.13708 -0.7111,-7.48489 -0.18758,-0.3887 -0.46379,-0.89715 -0.61384,-1.12979 -2.05526,-3.18638 -5.4568,-5.03548 -9.07913,-5.08038 z m -0.0477,23.90191 c -4.22126,-1.1e-4 -4.31822,0.009 -5.86561,0.57804 -4.56397,1.67706 -8.54465,6.84151 -10.6748,13.84902 -0.77351,2.54458 -1.25666,5.05848 -1.53532,7.98769 -0.12336,1.29677 -0.18054,3.99267 -0.0938,4.42519 0.0865,0.43147 0.45054,1.01504 0.73835,1.1838 0.18971,0.11124 2.91736,0.13241 17.37334,0.1356 11.3168,0.002 17.21935,-0.0288 17.35767,-0.092 0.32119,-0.14678 0.58662,-0.4867 0.74627,-0.95537 0.13585,-0.39889 0.14426,-0.50275 0.13496,-1.67836 -0.0286,-3.62113 -0.59763,-7.38916 -1.63875,-10.85111 -0.85082,-2.82909 -1.70399,-4.7744 -3.09614,-7.05956 -2.44336,-4.01069 -5.30352,-6.39886 -8.75359,-7.30889 -0.78209,-0.2063 -0.94976,-0.21392 -4.6926,-0.21401 z" />
      <text
         xml:space="preserve"
         style="font-style:normal;font-weight:normal;font-size:21.8932px;line-height:1.25;font-family:sans-serif;fill:#d9c0a3;fill-opacity:1;stroke:none;stroke-width:0.547277;stroke-miterlimit:4;stroke-dasharray:none"
         x="173.43446"
         y="179.43237"
         id="text1071-7-4-2"><tspan
           sodipodi:role="line"
           id="tspan1069-4-9-1"
           x="173.43446"
           y="179.43237"
           style="fill:#d9c0a3;fill-opacity:1;stroke-width:0.547277;stroke-miterlimit:4;stroke-dasharray:none">5</tspan></text>
      <path
         style="fill:none;stroke:#d9c0a3;stroke-width:1.59066;stroke-linecap:butt;stroke-linejoin:miter;stroke-miterlimit:4;stroke-dasharray:none;stroke-opacity:1"
         d="M 96.797847,-2.726074 C 68.336005,22.991214 66.850416,24.740831 66.850416,24.740831"
         id="path1171"
         sodipodi:nodetypes="cc" />
      <path
         style="fill:none;stroke:#d9c0a3;stroke-width:0.592957px;stroke-linecap:butt;stroke-linejoin:miter;stroke-opacity:1;marker-start:url(#Arrow1Lstart)"
         d="m 64.435171,26.333839 3.167461,-2.548555"
         id="path1655" />
      <path
         style="fill:none;stroke:#d9c0a3;stroke-width:1.61947;stroke-linecap:butt;stroke-linejoin:miter;stroke-miterlimit:4;stroke-dasharray:none;stroke-opacity:1"
         d="M 138.27724,-3.0954436 C 166.72267,23.577344 168.2074,25.391966 168.2074,25.391966"
         id="path1171-4"
         sodipodi:nodetypes="cc" />
      <path
         style="fill:none;stroke:#d9c0a3;stroke-width:0.592957px;stroke-linecap:butt;stroke-linejoin:miter;stroke-opacity:1;marker-start:url(#Arrow1Lstart-3)"
         d="m 170.63127,26.993043 -3.16746,-2.548555"
         id="path1655-7" />
      <path
         style="fill:none;stroke:#d9c0a3;stroke-width:1.665;stroke-linecap:butt;stroke-linejoin:miter;stroke-miterlimit:4;stroke-dasharray:none;stroke-opacity:1"
         d="M 53.266641,82.281068 C 52.793194,122.3598 53.081794,124.75489 53.081794,124.75489"
         id="path1171-2"
         sodipodi:nodetypes="cc" />
      <path
         style="fill:none;stroke:#d9c0a3;stroke-width:0.592957px;stroke-linecap:butt;stroke-linejoin:miter;stroke-opacity:1;marker-start:url(#Arrow1Lstart-4)"
         d="m 52.734739,127.66648 0.190164,-4.06101"
         id="path1655-1" />
      <path
         style="fill:none;stroke:#d9c0a3;stroke-width:1.665;stroke-linecap:butt;stroke-linejoin:miter;stroke-miterlimit:4;stroke-dasharray:none;stroke-opacity:1"
         d="m 180.79623,82.281073 c -0.47345,40.078727 -0.18485,42.473817 -0.18485,42.473817"
         id="path1171-2-5"
         sodipodi:nodetypes="cc" />
      <path
         style="fill:none;stroke:#d9c0a3;stroke-width:0.592957px;stroke-linecap:butt;stroke-linejoin:miter;stroke-opacity:1;marker-start:url(#Arrow1Lstart-4-9)"
         d="m 180.26432,127.66648 0.19017,-4.06101"
         id="path1655-1-7" />
    </g>
  </g>
</svg>
